<svg id="visual" viewBox="0 0 900 600" width="900" height="600" xmlns="http://www.w3.org/2000/svg" xmlns:xlink="http://www.w3.org/1999/xlink" version="1.1"><path d="M0 151L13.7 141C27.3 131 54.7 111 82 97C109.3 83 136.7 75 163.8 72C191 69 218 71 245.2 72C272.3 73 299.7 73 327 77C354.3 81 381.7 89 409 92C436.3 95 463.7 93 491 88C518.3 83 545.7 75 573 70C600.3 65 627.7 63 654.8 66C682 69 709 77 736.2 94C763.3 111 790.7 137 818 138C845.3 139 872.7 115 886.3 103L900 91L900 0L886.3 0C872.7 0 845.3 0 818 0C790.7 0 763.3 0 736.2 0C709 0 682 0 654.8 0C627.7 0 600.3 0 573 0C545.7 0 518.3 0 491 0C463.7 0 436.3 0 409 0C381.7 0 354.3 0 327 0C299.7 0 272.3 0 245.2 0C218 0 191 0 163.8 0C136.7 0 109.3 0 82 0C54.7 0 27.3 0 13.7 0L0 0Z" fill="#f17f67"></path><path d="M0 193L13.7 187C27.3 181 54.7 169 82 163C109.3 157 136.7 157 163.8 149C191 141 218 125 245.2 123C272.3 121 299.7 133 327 142C354.3 151 381.7 157 409 160C436.3 163 463.7 163 491 163C518.3 163 545.7 163 573 158C600.3 153 627.7 143 654.8 136C682 129 709 125 736.2 143C763.3 161 790.7 201 818 210C845.3 219 872.7 197 886.3 186L900 175L900 89L886.3 101C872.7 113 845.3 137 818 136C790.7 135 763.3 109 736.2 92C709 75 682 67 654.8 64C627.7 61 600.3 63 573 68C545.7 73 518.3 81 491 86C463.7 91 436.3 93 409 90C381.7 87 354.3 79 327 75C299.7 71 272.3 71 245.2 70C218 69 191 67 163.8 70C136.7 73 109.3 81 82 95C54.7 109 27.3 129 13.7 139L0 149Z" fill="#f5916f"></path><path d="M0 343L13.7 329C27.3 315 54.7 287 82 288C109.3 289 136.7 319 163.8 346C191 373 218 397 245.2 405C272.3 413 299.7 405 327 383C354.3 361 381.7 325 409 329C436.3 333 463.7 377 491 377C518.3 377 545.7 333 573 317C600.3 301 627.7 313 654.8 306C682 299 709 273 736.2 278C763.3 283 790.7 319 818 332C845.3 345 872.7 335 886.3 330L900 325L900 173L886.3 184C872.7 195 845.3 217 818 208C790.7 199 763.3 159 736.2 141C709 123 682 127 654.8 134C627.7 141 600.3 151 573 156C545.7 161 518.3 161 491 161C463.7 161 436.3 161 409 158C381.7 155 354.3 149 327 140C299.7 131 272.3 119 245.2 121C218 123 191 139 163.8 147C136.7 155 109.3 155 82 161C54.7 167 27.3 179 13.7 185L0 191Z" fill="#f8a27a"></path><path d="M0 463L13.7 446C27.3 429 54.7 395 82 391C109.3 387 136.7 413 163.8 430C191 447 218 455 245.2 464C272.3 473 299.7 483 327 471C354.3 459 381.7 425 409 423C436.3 421 463.7 451 491 445C518.3 439 545.7 397 573 388C600.3 379 627.7 403 654.8 394C682 385 709 343 736.2 341C763.3 339 790.7 377 818 398C845.3 419 872.7 423 886.3 425L900 427L900 323L886.3 328C872.7 333 845.3 343 818 330C790.7 317 763.3 281 736.2 276C709 271 682 297 654.8 304C627.7 311 600.3 299 573 315C545.7 331 518.3 375 491 375C463.7 375 436.3 331 409 327C381.7 323 354.3 359 327 381C299.7 403 272.3 411 245.2 403C218 395 191 371 163.8 344C136.7 317 109.3 287 82 286C54.7 285 27.3 313 13.7 327L0 341Z" fill="#fbb386"></path><path d="M0 601L13.7 601C27.3 601 54.7 601 82 601C109.3 601 136.7 601 163.8 601C191 601 218 601 245.2 601C272.3 601 299.7 601 327 601C354.3 601 381.7 601 409 601C436.3 601 463.7 601 491 601C518.3 601 545.7 601 573 601C600.3 601 627.7 601 654.8 601C682 601 709 601 736.2 601C763.3 601 790.7 601 818 601C845.3 601 872.7 601 886.3 601L900 601L900 425L886.3 423C872.7 421 845.3 417 818 396C790.7 375 763.3 337 736.2 339C709 341 682 383 654.8 392C627.7 401 600.3 377 573 386C545.7 395 518.3 437 491 443C463.7 449 436.3 419 409 421C381.7 423 354.3 457 327 469C299.7 481 272.3 471 245.2 462C218 453 191 445 163.8 428C136.7 411 109.3 385 82 389C54.7 393 27.3 427 13.7 444L0 461Z" fill="#fec395"></path></svg>