<svg id="visual" viewBox="0 0 900 600" width="900" height="600" xmlns="http://www.w3.org/2000/svg" xmlns:xlink="http://www.w3.org/1999/xlink" version="1.1"><path d="M0 115L30 117C60 119 120 123 180 131C240 139 300 151 360 158C420 165 480 167 540 150C600 133 660 97 720 95C780 93 840 125 870 141L900 157L900 0L870 0C840 0 780 0 720 0C660 0 600 0 540 0C480 0 420 0 360 0C300 0 240 0 180 0C120 0 60 0 30 0L0 0Z" fill="#f17f67"></path><path d="M0 457L30 411C60 365 120 273 180 276C240 279 300 377 360 387C420 397 480 319 540 309C600 299 660 357 720 361C780 365 840 315 870 290L900 265L900 155L870 139C840 123 780 91 720 93C660 95 600 131 540 148C480 165 420 163 360 156C300 149 240 137 180 129C120 121 60 117 30 115L0 113Z" fill="#f69773"></path><path d="M0 523L30 468C60 413 120 303 180 308C240 313 300 433 360 461C420 489 480 425 540 415C600 405 660 449 720 465C780 481 840 469 870 463L900 457L900 263L870 288C840 313 780 363 720 359C660 355 600 297 540 307C480 317 420 395 360 385C300 375 240 277 180 274C120 271 60 363 30 409L0 455Z" fill="#faad82"></path><path d="M0 601L30 601C60 601 120 601 180 601C240 601 300 601 360 601C420 601 480 601 540 601C600 601 660 601 720 601C780 601 840 601 870 601L900 601L900 455L870 461C840 467 780 479 720 463C660 447 600 403 540 413C480 423 420 487 360 459C300 431 240 311 180 306C120 301 60 411 30 466L0 521Z" fill="#fec395"></path></svg>